<svg version="1.1" id="Layer_1" xmlns="http://www.w3.org/2000/svg" xmlns:xlink="http://www.w3.org/1999/xlink" x="0px" y="0px"
	 width="100%" viewBox="0 0 1360 281" enable-background="new 0 0 1360 281" xml:space="preserve">
<path fill="none" opacity="1.000000" stroke="none" 
	d="
M1361.000000,108.000000 
	C1361.000000,165.984711 1361.000000,223.969421 1361.000000,281.953186 
	C907.666687,281.952209 454.333344,281.952209 1.000000,281.952209 
	C1.000000,259.577148 1.000000,237.249817 1.347566,214.598907 
	C2.041327,214.635498 2.608162,214.946060 2.701961,215.363037 
	C6.728628,233.263565 16.077723,247.753769 30.516203,259.021057 
	C42.786591,268.596436 56.610676,274.765228 72.197166,274.872620 
	C122.021591,275.215820 171.849869,275.000000 221.676666,275.000000 
	C223.623734,275.000000 225.570801,275.000000 227.622482,275.000000 
	C227.622482,268.048431 227.622482,261.673828 227.622482,255.000000 
	C225.265762,255.000000 223.284821,255.000000 221.303864,255.000000 
	C172.643585,255.000000 123.983238,254.960663 75.323082,255.037247 
	C66.834160,255.050598 58.805397,252.779800 51.749271,248.715134 
	C31.693014,237.161758 20.553505,219.953812 20.991688,196.162415 
	C21.411205,173.384521 32.705750,157.191589 51.850014,146.143387 
	C61.744492,140.433258 72.997635,139.305069 84.337135,138.848419 
	C76.040131,111.026970 82.605408,87.565865 106.663719,71.198776 
	C131.054047,54.605816 155.206253,58.818680 177.394211,76.741684 
	C193.757278,39.200478 221.593231,17.680277 262.099670,21.616749 
	C309.285919,26.202370 333.430542,56.630615 338.393982,102.671524 
	C345.140076,102.671524 351.401154,102.671524 358.250854,102.671524 
	C357.801392,99.047256 357.595428,95.782372 356.963013,92.602287 
	C355.369629,84.589676 354.338806,76.358131 351.722137,68.677795 
	C345.827118,51.374840 335.761719,36.763123 321.578033,24.945766 
	C312.863373,17.685061 303.501251,11.632502 292.821838,8.013850 
	C284.390442,5.156913 275.619904,3.300667 267.000000,0.999999 
	C631.666687,1.000000 996.333313,1.000000 1361.000000,1.000000 
	C1361.000000,33.100216 1361.000000,65.088852 1360.678467,97.423889 
	C1359.883179,97.109085 1359.400146,96.454338 1358.936890,95.785759 
	C1353.247559,87.572495 1344.505127,84.761612 1336.094727,88.444946 
	C1329.430420,91.363541 1325.099243,100.187805 1326.741577,108.096558 
	C1328.625366,122.201431 1344.109253,125.332542 1352.401123,119.690712 
	C1356.172852,117.124504 1358.188110,111.976768 1361.000000,108.000000 
M984.606201,131.891357 
	C986.741638,133.114868 989.140564,134.039413 990.949341,135.633606 
	C993.515808,137.895538 995.175354,136.876175 996.643127,134.682312 
	C1000.822388,128.435928 1004.897217,122.119682 1008.998657,115.852966 
	C990.383667,101.130501 975.886536,98.853287 953.777039,100.175735 
	C945.036926,100.698509 936.952209,104.309196 930.166016,110.301842 
	C918.471191,120.628990 917.658081,134.269318 919.441406,148.135513 
	C920.060913,152.952255 923.388794,157.824493 926.546265,161.830795 
	C934.180298,171.517334 946.088806,173.305023 956.916321,177.024170 
	C964.617310,179.669373 972.299683,182.396454 979.859924,185.413788 
	C984.234924,187.159866 984.434570,191.101334 984.100098,195.250504 
	C983.687073,200.374603 976.683044,204.658356 969.740723,204.966751 
	C955.899414,205.581589 943.975220,200.448959 933.533264,191.837753 
	C930.569214,189.393326 928.973267,190.053162 927.047607,192.469437 
	C923.257324,197.225311 919.712708,202.200562 915.640198,206.699234 
	C913.168945,209.429123 914.138916,211.052597 916.339050,212.816223 
	C935.821472,228.433701 958.234497,233.785278 982.233826,228.580444 
	C1007.538696,223.092453 1015.581909,204.001678 1011.051270,180.119507 
	C1008.710449,167.780640 999.515930,161.234756 988.743652,157.184540 
	C978.037476,153.159119 966.860718,150.400269 955.955811,146.882812 
	C950.008362,144.964417 946.295898,140.320923 946.337463,135.589371 
	C946.375732,131.237640 949.680664,127.927094 956.179382,125.911018 
	C957.721863,125.432510 959.366394,125.064339 960.970215,125.038811 
	C969.260132,124.906914 976.781189,127.639671 984.606201,131.891357 
M275.000000,225.499985 
	C269.912720,230.585388 264.825409,235.670792 258.725067,241.768890 
	C258.725067,232.866974 258.725067,225.607361 258.725067,218.270493 
	C252.038269,218.270493 245.783279,218.270493 239.365906,218.270493 
	C239.365906,237.249100 239.365906,255.955338 239.365906,274.715515 
	C260.321503,274.715515 280.909912,274.715515 301.619995,274.715515 
	C301.619995,268.051880 301.619995,261.677979 301.619995,254.823914 
	C292.713593,254.823914 284.181793,254.823914 277.359009,254.823914 
	C311.357239,220.825592 345.955780,186.226944 380.329315,151.853317 
	C380.329315,159.548492 380.329315,168.138260 380.329315,176.693268 
	C387.035858,176.693268 393.291290,176.693268 399.597900,176.693268 
	C399.597900,156.010651 399.597900,135.637360 399.597900,115.320679 
	C378.605255,115.320679 358.016357,115.320679 337.416229,115.320679 
	C337.416229,122.024712 337.416229,128.399490 337.416229,135.259659 
	C346.683044,135.259659 355.537354,135.259659 365.276917,135.259659 
	C334.882904,165.641312 305.191467,195.320679 275.000000,225.499985 
M1311.532593,129.826462 
	C1306.929565,129.550964 1302.329956,129.153061 1297.722900,129.022339 
	C1282.280762,128.584259 1270.961304,136.355301 1262.107910,147.985657 
	C1254.040039,158.584198 1252.440186,171.068283 1252.911621,184.127762 
	C1253.494507,200.274994 1260.483398,212.674622 1273.305664,222.087067 
	C1283.340698,229.453506 1294.825806,230.341721 1306.777832,230.087875 
	C1321.574951,229.773590 1332.776367,223.087173 1342.324951,211.838547 
	C1337.166260,207.373322 1332.280884,202.996155 1327.175537,198.892822 
	C1326.444946,198.305557 1324.137085,198.531967 1323.427612,199.245377 
	C1316.682129,206.028244 1308.459839,207.746506 1299.302490,207.035156 
	C1291.919067,206.461609 1282.556030,201.000046 1281.335938,190.000000 
	C1283.182861,190.000000 1284.991699,190.000000 1286.800415,190.000000 
	C1304.955933,189.999985 1323.113159,189.862350 1341.265625,190.097473 
	C1345.759766,190.155685 1347.368896,188.437927 1346.981812,184.329453 
	C1346.380493,177.947678 1346.349731,171.411499 1344.862915,165.232956 
	C1340.646729,147.711472 1331.145386,134.299316 1311.532593,129.826462 
M1130.719849,225.925873 
	C1147.921143,233.189392 1164.124023,232.412781 1179.310791,218.981964 
	C1179.310791,222.865311 1179.310791,225.785706 1179.310791,228.720322 
	C1187.999756,228.720322 1196.250122,228.720322 1205.000000,228.720322 
	C1205.000000,226.659668 1205.000000,224.872147 1205.000000,223.084610 
	C1205.000000,205.600082 1205.066040,188.115128 1204.954224,170.631317 
	C1204.925903,166.195328 1204.583862,161.726425 1203.948364,157.335999 
	C1202.263428,145.697113 1192.059082,134.269623 1180.408081,132.128326 
	C1172.310669,130.640152 1163.946411,130.455063 1155.683716,130.051895 
	C1145.800903,129.569672 1136.506592,132.388107 1127.486816,136.093796 
	C1126.423706,136.530533 1124.950684,138.372589 1125.166748,139.142258 
	C1127.048462,145.842880 1129.271973,152.447449 1131.460205,159.287521 
	C1132.849609,158.817810 1133.588745,158.453033 1134.367188,158.322403 
	C1143.075073,156.861023 1151.768799,154.433701 1160.506348,154.258163 
	C1171.073975,154.045853 1178.808105,160.328064 1178.431519,171.418961 
	C1173.154175,170.615051 1167.877075,169.484375 1162.545532,169.089767 
	C1157.080322,168.685272 1151.489014,168.433884 1146.083008,169.128098 
	C1136.863770,170.311966 1128.422363,173.264877 1122.201416,181.099243 
	C1116.997803,187.652496 1117.008545,195.006317 1116.951904,202.642685 
	C1116.875732,212.921417 1121.870361,220.111252 1130.719849,225.925873 
M1091.760010,196.112122 
	C1087.957764,198.695892 1084.385986,201.742767 1080.307739,203.771622 
	C1070.353638,208.723541 1059.027466,205.182495 1052.910156,196.363495 
	C1046.114502,186.566620 1046.199463,176.137054 1050.853760,165.610947 
	C1054.918091,156.419266 1067.719238,150.406754 1075.393066,154.007919 
	C1081.064941,156.669632 1086.550049,159.729324 1092.763184,162.945450 
	C1097.499390,157.813461 1103.116333,151.727203 1108.720215,145.655121 
	C1095.325806,126.993446 1066.980103,124.053940 1047.747070,133.365540 
	C1026.300781,143.748657 1015.698608,165.829102 1021.266846,191.712997 
	C1026.418213,215.658707 1044.799438,229.874313 1069.928345,230.883621 
	C1085.931152,231.526382 1105.804443,221.124741 1108.817261,210.851227 
	C1103.489868,206.020874 1097.987549,201.031830 1091.760010,196.112122 
M885.129761,146.642731 
	C874.236694,134.822159 861.019287,129.724762 845.034302,133.033798 
	C833.100159,135.504272 823.859558,142.191772 817.382324,152.337509 
	C810.531189,163.068924 808.584778,174.854294 809.821045,187.635620 
	C811.098145,200.839722 816.256104,211.573151 825.914368,220.455444 
	C837.491150,231.101883 858.655518,233.424103 870.806702,226.430283 
	C877.033081,222.846619 882.397888,217.766190 888.191040,213.332413 
	C888.191040,217.736252 888.191040,222.657089 888.191040,227.592621 
	C893.338989,227.592621 898.047852,227.592621 902.678589,227.592621 
	C902.678589,183.598541 902.678589,140.012604 902.678589,96.416855 
	C897.640930,96.416855 892.931274,96.416855 888.000000,96.416855 
	C888.000000,98.656799 888.000000,100.480522 888.000000,102.304253 
	C887.999939,116.303017 888.043030,130.302200 887.909302,144.299683 
	C887.899719,145.306763 889.726624,148.828308 885.129761,146.642731 
M464.995392,117.505974 
	C462.628876,120.454010 460.036652,123.250130 457.933228,126.375244 
	C446.234131,143.757065 444.397369,162.866241 448.934357,182.770615 
	C453.648865,203.453812 465.969055,218.130722 485.649200,226.178619 
	C495.976349,230.401733 506.684906,231.581497 518.005798,230.182541 
	C534.778503,228.109909 548.112305,220.613937 559.000854,208.298904 
	C555.608643,204.828659 552.491577,201.639938 549.258606,198.332657 
	C537.479309,209.268402 524.508789,217.331375 507.093384,216.193939 
	C496.099670,215.475937 486.758362,211.736511 479.093689,204.427490 
	C462.758209,188.849976 458.370728,169.513672 464.526733,148.248688 
	C470.973877,125.977844 488.653992,112.774429 511.299103,113.094421 
	C524.532166,113.281410 535.696960,119.241837 545.324097,127.969582 
	C548.016357,130.410339 549.712952,130.308792 551.812622,127.703514 
	C554.065430,124.908363 556.388611,122.169899 558.669373,119.420738 
	C534.811890,92.923882 489.266602,91.818787 464.995392,117.505974 
M603.000244,185.256042 
	C603.338196,187.525986 603.596985,189.811081 604.027344,192.063370 
	C606.465454,204.824280 613.038391,215.009079 623.737732,222.286621 
	C634.014709,229.276840 645.240784,231.962799 657.859070,230.193878 
	C668.658875,228.679901 677.900391,224.241669 685.287415,216.875610 
	C697.443298,204.754211 701.528015,189.171143 698.785095,172.653931 
	C692.671326,135.838013 653.260986,121.287926 624.504395,140.198944 
	C608.976257,150.410629 602.447693,165.846725 603.000244,185.256042 
M1243.999268,99.703636 
	C1243.313477,98.478493 1242.659302,96.209831 1241.936890,96.187813 
	C1233.695435,95.936737 1225.443481,96.028214 1217.335815,96.028214 
	C1217.335815,140.431839 1217.335815,184.021332 1217.335815,227.571777 
	C1226.387817,227.571777 1235.098267,227.571777 1244.000000,227.571777 
	C1244.000000,184.983139 1244.000000,142.822418 1243.999268,99.703636 
M763.090454,214.922363 
	C760.060486,215.614243 757.044495,216.826996 753.998108,216.909256 
	C739.600403,217.298035 728.492371,208.020187 728.096985,191.875061 
	C727.669006,174.398880 728.000000,156.904114 728.000000,139.417450 
	C728.000000,137.678864 728.000000,135.940277 728.000000,134.346802 
	C722.542969,134.346802 717.956055,134.346802 713.000000,134.346802 
	C713.000000,144.154388 712.876648,153.621948 713.030701,163.084991 
	C713.230408,175.351852 713.274231,187.639786 714.075317,199.873444 
	C715.004700,214.064316 722.259338,224.433304 736.076965,228.335892 
	C749.982239,232.263229 763.621948,231.604340 774.528687,219.999756 
	C775.917908,218.521637 777.484680,217.210358 780.046021,214.814529 
	C780.046021,220.127930 780.046021,223.849838 780.046021,227.600281 
	C784.991821,227.600281 789.363647,227.600281 793.707336,227.600281 
	C793.707336,196.294205 793.707336,165.388779 793.707336,134.384918 
	C789.038025,134.384918 784.667419,134.384918 779.999878,134.384918 
	C779.999878,152.070557 780.204529,169.376083 779.930176,186.674011 
	C779.737854,198.801178 775.182190,208.769485 763.090454,214.922363 
M259.000000,186.499863 
	C259.000000,169.419495 259.000000,152.339142 259.000000,134.826721 
	C282.047180,134.826721 304.303955,134.826721 326.600830,134.826721 
	C326.600830,128.002045 326.600830,121.628090 326.600830,115.308838 
	C297.281372,115.308838 268.362152,115.308838 239.394867,115.308838 
	C239.394867,146.320724 239.394867,177.023773 239.394867,207.690643 
	C246.050476,207.690643 252.306442,207.690643 259.000000,207.690643 
	C259.000000,200.757721 259.000000,194.128754 259.000000,186.499863 
M326.258911,274.031128 
	C343.597565,268.265839 358.665649,258.701752 371.501404,245.857193 
	C381.827332,235.524170 389.856445,223.382950 395.440094,209.872437 
	C398.212524,203.164108 401.611847,196.292938 399.490723,188.320679 
	C393.086884,188.320679 386.694916,188.320679 380.347504,188.320679 
	C376.820679,215.758911 344.692810,252.174362 312.349548,255.528748 
	C312.349548,261.892303 312.349548,268.270203 312.349548,275.324921 
	C316.970581,274.927277 321.198639,274.563416 326.258911,274.031128 
M572.000000,108.512314 
	C572.000000,148.251602 572.000000,187.990891 572.000000,227.684616 
	C577.389099,227.684616 581.978271,227.684616 586.601196,227.684616 
	C586.601196,183.668900 586.601196,139.969757 586.601196,96.316582 
	C581.608337,96.316582 577.019226,96.316582 572.000000,96.316582 
	C572.000000,100.257950 572.000000,103.888634 572.000000,108.512314 
z"/>
<path fill="#7991BC" opacity="1.000000" stroke="none" 
	d="
M266.531342,0.999999 
	C275.619904,3.300667 284.390442,5.156913 292.821838,8.013850 
	C303.501251,11.632502 312.863373,17.685061 321.578033,24.945766 
	C335.761719,36.763123 345.827118,51.374840 351.722137,68.677795 
	C354.338806,76.358131 355.369629,84.589676 356.963013,92.602287 
	C357.595428,95.782372 357.801392,99.047256 358.250854,102.671524 
	C351.401154,102.671524 345.140076,102.671524 338.393982,102.671524 
	C333.430542,56.630615 309.285919,26.202370 262.099670,21.616749 
	C221.593231,17.680277 193.757278,39.200478 177.394211,76.741684 
	C155.206253,58.818680 131.054047,54.605816 106.663719,71.198776 
	C82.605408,87.565865 76.040131,111.026970 84.337135,138.848419 
	C72.997635,139.305069 61.744492,140.433258 51.850014,146.143387 
	C32.705750,157.191589 21.411205,173.384521 20.991688,196.162415 
	C20.553505,219.953812 31.693014,237.161758 51.749271,248.715134 
	C58.805397,252.779800 66.834160,255.050598 75.323082,255.037247 
	C123.983238,254.960663 172.643585,255.000000 221.303864,255.000000 
	C223.284821,255.000000 225.265762,255.000000 227.622482,255.000000 
	C227.622482,261.673828 227.622482,268.048431 227.622482,275.000000 
	C225.570801,275.000000 223.623734,275.000000 221.676666,275.000000 
	C171.849869,275.000000 122.021591,275.215820 72.197166,274.872620 
	C56.610676,274.765228 42.786591,268.596436 30.516203,259.021057 
	C16.077723,247.753769 6.728628,233.263565 2.701961,215.363037 
	C2.608162,214.946060 2.041327,214.635498 1.347566,214.137650 
	C1.000000,202.979111 1.000000,191.958206 1.389486,180.438019 
	C2.183929,179.324432 2.783030,178.762802 2.965906,178.088318 
	C10.779975,149.268219 29.480631,131.016769 57.620518,122.149963 
	C60.346760,121.290939 61.016415,120.232475 61.023018,117.760689 
	C61.076843,97.615295 67.918922,80.317940 81.824593,65.509621 
	C96.626175,49.747211 114.837929,42.130535 136.029007,41.065655 
	C146.325516,40.548241 156.261154,42.968166 166.081696,45.952740 
	C167.648285,46.428844 170.350067,45.880878 171.441116,44.754486 
	C177.015381,38.999622 181.895950,32.550827 187.644073,26.990814 
	C200.882416,14.185741 216.952698,6.657310 234.909195,2.939002 
	C236.025436,2.707856 236.973633,1.665137 238.000000,1.000003 
	C247.354233,1.000000 256.708466,1.000000 266.531342,0.999999 
z"/>
<path fill="none" opacity="1.000000" stroke="none" 
	d="
M237.531342,1.000003 
	C236.973633,1.665137 236.025436,2.707856 234.909195,2.939002 
	C216.952698,6.657310 200.882416,14.185741 187.644073,26.990814 
	C181.895950,32.550827 177.015381,38.999622 171.441116,44.754486 
	C170.350067,45.880878 167.648285,46.428844 166.081696,45.952740 
	C156.261154,42.968166 146.325516,40.548241 136.029007,41.065655 
	C114.837929,42.130535 96.626175,49.747211 81.824593,65.509621 
	C67.918922,80.317940 61.076843,97.615295 61.023018,117.760689 
	C61.016415,120.232475 60.346760,121.290939 57.620518,122.149963 
	C29.480631,131.016769 10.779975,149.268219 2.965906,178.088318 
	C2.783030,178.762802 2.183929,179.324432 1.389486,179.969360 
	C1.000000,120.396126 1.000000,60.792252 1.000000,1.000000 
	C79.687462,1.000000 158.375076,1.000000 237.531342,1.000003 
z"/>
<path fill="none" opacity="1.000000" stroke="none" 
	d="
M1361.000000,102.000008 
	C1361.000000,103.389000 1361.000000,104.777992 1360.637451,106.600037 
	C1359.164917,108.312599 1357.643188,109.417931 1357.015503,110.901535 
	C1354.149292,117.676994 1344.466797,122.095802 1337.289062,118.272552 
	C1332.361694,115.648041 1330.262329,111.768806 1328.897827,106.541565 
	C1329.074219,97.973518 1333.122070,91.984818 1339.737427,90.171837 
	C1346.713135,88.260101 1352.843140,91.539497 1357.131348,99.121338 
	C1357.855225,100.400909 1359.682495,101.056252 1361.000000,102.000008 
M1340.531250,95.000137 
	C1339.111816,95.109047 1337.692261,95.217957 1336.240479,95.329346 
	C1336.240479,101.343658 1336.240479,106.919159 1336.240479,112.598999 
	C1342.009277,114.094429 1338.764893,108.531944 1340.745728,107.235893 
	C1346.030762,105.434189 1345.871460,115.404999 1352.210938,112.183212 
	C1349.097290,109.288292 1347.958984,106.650681 1350.922485,102.645409 
	C1353.306274,99.423706 1350.691772,95.683304 1346.417358,95.071442 
	C1344.793091,94.838943 1343.110718,95.011864 1340.531250,95.000137 
z"/>
<path fill="#4FD7FC" opacity="1.000000" stroke="none" 
	d="
M1361.000000,101.600014 
	C1359.682495,101.056252 1357.855225,100.400909 1357.131348,99.121338 
	C1352.843140,91.539497 1346.713135,88.260101 1339.737427,90.171837 
	C1333.122070,91.984818 1329.074219,97.973518 1328.625488,106.432106 
	C1327.729370,107.090782 1327.167236,107.434647 1326.605225,107.778503 
	C1325.099243,100.187805 1329.430420,91.363541 1336.094727,88.444946 
	C1344.505127,84.761612 1353.247559,87.572495 1358.936890,95.785759 
	C1359.400146,96.454338 1359.883179,97.109085 1360.678467,97.885139 
	C1361.000000,99.066673 1361.000000,100.133339 1361.000000,101.600014 
z"/>
<path fill="#4FD7FC" opacity="1.000000" stroke="none" 
	d="
M1326.741577,108.096573 
	C1327.167236,107.434647 1327.729370,107.090782 1328.563721,106.856377 
	C1330.262329,111.768806 1332.361694,115.648041 1337.289062,118.272552 
	C1344.466797,122.095802 1354.149292,117.676994 1357.015503,110.901535 
	C1357.643188,109.417931 1359.164917,108.312599 1360.637451,107.016541 
	C1361.000000,107.000000 1361.000000,107.500000 1361.000000,107.750000 
	C1358.188110,111.976768 1356.172852,117.124504 1352.401123,119.690712 
	C1344.109253,125.332542 1328.625366,122.201431 1326.741577,108.096573 
z"/>
<path fill="#7991BC" opacity="1.000000" stroke="none" 
	d="
M984.291382,131.686386 
	C976.781189,127.639671 969.260132,124.906914 960.970215,125.038811 
	C959.366394,125.064339 957.721863,125.432510 956.179382,125.911018 
	C949.680664,127.927094 946.375732,131.237640 946.337463,135.589371 
	C946.295898,140.320923 950.008362,144.964417 955.955811,146.882812 
	C966.860718,150.400269 978.037476,153.159119 988.743652,157.184540 
	C999.515930,161.234756 1008.710449,167.780640 1011.051270,180.119507 
	C1015.581909,204.001678 1007.538696,223.092453 982.233826,228.580444 
	C958.234497,233.785278 935.821472,228.433701 916.339050,212.816223 
	C914.138916,211.052597 913.168945,209.429123 915.640198,206.699234 
	C919.712708,202.200562 923.257324,197.225311 927.047607,192.469437 
	C928.973267,190.053162 930.569214,189.393326 933.533264,191.837753 
	C943.975220,200.448959 955.899414,205.581589 969.740723,204.966751 
	C976.683044,204.658356 983.687073,200.374603 984.100098,195.250504 
	C984.434570,191.101334 984.234924,187.159866 979.859924,185.413788 
	C972.299683,182.396454 964.617310,179.669373 956.916321,177.024170 
	C946.088806,173.305023 934.180298,171.517334 926.546265,161.830795 
	C923.388794,157.824493 920.060913,152.952255 919.441406,148.135513 
	C917.658081,134.269318 918.471191,120.628990 930.166016,110.301842 
	C936.952209,104.309196 945.036926,100.698509 953.777039,100.175735 
	C975.886536,98.853287 990.383667,101.130501 1008.998657,115.852966 
	C1004.897217,122.119682 1000.822388,128.435928 996.643127,134.682312 
	C995.175354,136.876175 993.515808,137.895538 990.949341,135.633606 
	C989.140564,134.039413 986.741638,133.114868 984.291382,131.686386 
z"/>
<path fill="#4FD7FC" opacity="1.000000" stroke="none" 
	d="
M275.250000,225.250015 
	C305.191467,195.320679 334.882904,165.641312 365.276917,135.259659 
	C355.537354,135.259659 346.683044,135.259659 337.416229,135.259659 
	C337.416229,128.399490 337.416229,122.024712 337.416229,115.320679 
	C358.016357,115.320679 378.605255,115.320679 399.597900,115.320679 
	C399.597900,135.637360 399.597900,156.010651 399.597900,176.693268 
	C393.291290,176.693268 387.035858,176.693268 380.329315,176.693268 
	C380.329315,168.138260 380.329315,159.548492 380.329315,151.853317 
	C345.955780,186.226944 311.357239,220.825592 277.359009,254.823914 
	C284.181793,254.823914 292.713593,254.823914 301.619995,254.823914 
	C301.619995,261.677979 301.619995,268.051880 301.619995,274.715515 
	C280.909912,274.715515 260.321503,274.715515 239.365906,274.715515 
	C239.365906,255.955338 239.365906,237.249100 239.365906,218.270493 
	C245.783279,218.270493 252.038269,218.270493 258.725067,218.270493 
	C258.725067,225.607361 258.725067,232.866974 258.725067,241.768890 
	C264.825409,235.670792 269.912720,230.585388 275.250000,225.250015 
z"/>
<path fill="#7991BC" opacity="1.000000" stroke="none" 
	d="
M1311.957520,129.894165 
	C1331.145386,134.299316 1340.646729,147.711472 1344.862915,165.232956 
	C1346.349731,171.411499 1346.380493,177.947678 1346.981812,184.329453 
	C1347.368896,188.437927 1345.759766,190.155685 1341.265625,190.097473 
	C1323.113159,189.862350 1304.955933,189.999985 1286.800415,190.000000 
	C1284.991699,190.000000 1283.182861,190.000000 1281.335938,190.000000 
	C1282.556030,201.000046 1291.919067,206.461609 1299.302490,207.035156 
	C1308.459839,207.746506 1316.682129,206.028244 1323.427612,199.245377 
	C1324.137085,198.531967 1326.444946,198.305557 1327.175537,198.892822 
	C1332.280884,202.996155 1337.166260,207.373322 1342.324951,211.838547 
	C1332.776367,223.087173 1321.574951,229.773590 1306.777832,230.087875 
	C1294.825806,230.341721 1283.340698,229.453506 1273.305664,222.087067 
	C1260.483398,212.674622 1253.494507,200.274994 1252.911621,184.127762 
	C1252.440186,171.068283 1254.040039,158.584198 1262.107910,147.985657 
	C1270.961304,136.355301 1282.280762,128.584259 1297.722900,129.022339 
	C1302.329956,129.153061 1306.929565,129.550964 1311.957520,129.894165 
M1301.322266,152.000000 
	C1289.666626,150.386963 1281.921997,160.397842 1280.237549,171.670013 
	C1293.098511,171.670013 1305.910522,171.670013 1318.705322,171.670013 
	C1319.239014,161.964203 1311.301025,152.663544 1301.322266,152.000000 
z"/>
<path fill="#7991BC" opacity="1.000000" stroke="none" 
	d="
M1130.395508,225.741043 
	C1121.870361,220.111252 1116.875732,212.921417 1116.951904,202.642685 
	C1117.008545,195.006317 1116.997803,187.652496 1122.201416,181.099243 
	C1128.422363,173.264877 1136.863770,170.311966 1146.083008,169.128098 
	C1151.489014,168.433884 1157.080322,168.685272 1162.545532,169.089767 
	C1167.877075,169.484375 1173.154175,170.615051 1178.431519,171.418961 
	C1178.808105,160.328064 1171.073975,154.045853 1160.506348,154.258163 
	C1151.768799,154.433701 1143.075073,156.861023 1134.367188,158.322403 
	C1133.588745,158.453033 1132.849609,158.817810 1131.460205,159.287521 
	C1129.271973,152.447449 1127.048462,145.842880 1125.166748,139.142258 
	C1124.950684,138.372589 1126.423706,136.530533 1127.486816,136.093796 
	C1136.506592,132.388107 1145.800903,129.569672 1155.683716,130.051895 
	C1163.946411,130.455063 1172.310669,130.640152 1180.408081,132.128326 
	C1192.059082,134.269623 1202.263428,145.697113 1203.948364,157.335999 
	C1204.583862,161.726425 1204.925903,166.195328 1204.954224,170.631317 
	C1205.066040,188.115128 1205.000000,205.600082 1205.000000,223.084610 
	C1205.000000,224.872147 1205.000000,226.659668 1205.000000,228.720322 
	C1196.250122,228.720322 1187.999756,228.720322 1179.310791,228.720322 
	C1179.310791,225.785706 1179.310791,222.865311 1179.310791,218.981964 
	C1164.124023,232.412781 1147.921143,233.189392 1130.395508,225.741043 
M1149.956177,208.929352 
	C1153.765015,209.288498 1157.584961,210.040466 1161.380493,209.932449 
	C1172.369385,209.619781 1181.414917,200.188919 1178.356567,188.376221 
	C1172.267700,187.626129 1165.673584,186.182800 1159.080566,186.188354 
	C1153.114624,186.193375 1146.768799,187.832779 1144.484741,194.329025 
	C1142.559692,199.803558 1143.757690,205.162903 1149.956177,208.929352 
z"/>
<path fill="#7991BC" opacity="1.000000" stroke="none" 
	d="
M1092.122559,196.077454 
	C1097.987549,201.031830 1103.489868,206.020874 1108.817261,210.851227 
	C1105.804443,221.124741 1085.931152,231.526382 1069.928345,230.883621 
	C1044.799438,229.874313 1026.418213,215.658707 1021.266846,191.712997 
	C1015.698608,165.829102 1026.300781,143.748657 1047.747070,133.365540 
	C1066.980103,124.053940 1095.325806,126.993446 1108.720215,145.655121 
	C1103.116333,151.727203 1097.499390,157.813461 1092.763184,162.945450 
	C1086.550049,159.729324 1081.064941,156.669632 1075.393066,154.007919 
	C1067.719238,150.406754 1054.918091,156.419266 1050.853760,165.610947 
	C1046.199463,176.137054 1046.114502,186.566620 1052.910156,196.363495 
	C1059.027466,205.182495 1070.353638,208.723541 1080.307739,203.771622 
	C1084.385986,201.742767 1087.957764,198.695892 1092.122559,196.077454 
z"/>
<path fill="#4FD7FC" opacity="1.000000" stroke="none" 
	d="
M885.416260,146.893036 
	C889.726624,148.828308 887.899719,145.306763 887.909302,144.299683 
	C888.043030,130.302200 887.999939,116.303017 888.000000,102.304253 
	C888.000000,100.480522 888.000000,98.656799 888.000000,96.416855 
	C892.931274,96.416855 897.640930,96.416855 902.678589,96.416855 
	C902.678589,140.012604 902.678589,183.598541 902.678589,227.592621 
	C898.047852,227.592621 893.338989,227.592621 888.191040,227.592621 
	C888.191040,222.657089 888.191040,217.736252 888.191040,213.332413 
	C882.397888,217.766190 877.033081,222.846619 870.806702,226.430283 
	C858.655518,233.424103 837.491150,231.101883 825.914368,220.455444 
	C816.256104,211.573151 811.098145,200.839722 809.821045,187.635620 
	C808.584778,174.854294 810.531189,163.068924 817.382324,152.337509 
	C823.859558,142.191772 833.100159,135.504272 845.034302,133.033798 
	C861.019287,129.724762 874.236694,134.822159 885.416260,146.893036 
M888.999268,181.451691 
	C888.221313,170.736938 884.696289,161.539856 876.559021,153.857864 
	C863.241150,141.285263 839.569336,143.249207 829.420044,161.267334 
	C823.202454,172.305374 822.789795,184.055695 827.067322,195.951385 
	C835.019470,218.066208 861.293884,223.921249 878.045410,207.578842 
	C885.271667,200.529037 887.688232,191.767563 888.999268,181.451691 
z"/>
<path fill="#4FD7FC" opacity="1.000000" stroke="none" 
	d="
M465.246002,117.254471 
	C489.266602,91.818787 534.811890,92.923882 558.669373,119.420738 
	C556.388611,122.169899 554.065430,124.908363 551.812622,127.703514 
	C549.712952,130.308792 548.016357,130.410339 545.324097,127.969582 
	C535.696960,119.241837 524.532166,113.281410 511.299103,113.094421 
	C488.653992,112.774429 470.973877,125.977844 464.526733,148.248688 
	C458.370728,169.513672 462.758209,188.849976 479.093689,204.427490 
	C486.758362,211.736511 496.099670,215.475937 507.093384,216.193939 
	C524.508789,217.331375 537.479309,209.268402 549.258606,198.332657 
	C552.491577,201.639938 555.608643,204.828659 559.000854,208.298904 
	C548.112305,220.613937 534.778503,228.109909 518.005798,230.182541 
	C506.684906,231.581497 495.976349,230.401733 485.649200,226.178619 
	C465.969055,218.130722 453.648865,203.453812 448.934357,182.770615 
	C444.397369,162.866241 446.234131,143.757065 457.933228,126.375244 
	C460.036652,123.250130 462.628876,120.454010 465.246002,117.254471 
z"/>
<path fill="#4FD7FC" opacity="1.000000" stroke="none" 
	d="
M603.000122,184.788055 
	C602.447693,165.846725 608.976257,150.410629 624.504395,140.198944 
	C653.260986,121.287926 692.671326,135.838013 698.785095,172.653931 
	C701.528015,189.171143 697.443298,204.754211 685.287415,216.875610 
	C677.900391,224.241669 668.658875,228.679901 657.859070,230.193878 
	C645.240784,231.962799 634.014709,229.276840 623.737732,222.286621 
	C613.038391,215.009079 606.465454,204.824280 604.027344,192.063370 
	C603.596985,189.811081 603.338196,187.525986 603.000122,184.788055 
M647.330933,145.997406 
	C637.656372,146.441040 630.384705,151.364594 625.087097,158.965652 
	C613.189636,176.036469 616.352295,197.455246 632.378235,210.864090 
	C642.384216,219.236069 661.146851,218.638992 671.110596,210.567093 
	C685.636536,198.799133 687.471985,176.461411 679.287170,162.440536 
	C672.583801,150.957367 658.706726,144.007645 647.330933,145.997406 
z"/>
<path fill="#7991BC" opacity="1.000000" stroke="none" 
	d="
M1243.999634,100.182663 
	C1244.000000,142.822418 1244.000000,184.983139 1244.000000,227.571777 
	C1235.098267,227.571777 1226.387817,227.571777 1217.335815,227.571777 
	C1217.335815,184.021332 1217.335815,140.431839 1217.335815,96.028214 
	C1225.443481,96.028214 1233.695435,95.936737 1241.936890,96.187813 
	C1242.659302,96.209831 1243.313477,98.478493 1243.999634,100.182663 
z"/>
<path fill="#4FD7FC" opacity="1.000000" stroke="none" 
	d="
M763.451416,214.774780 
	C775.182190,208.769485 779.737854,198.801178 779.930176,186.674011 
	C780.204529,169.376083 779.999878,152.070557 779.999878,134.384918 
	C784.667419,134.384918 789.038025,134.384918 793.707336,134.384918 
	C793.707336,165.388779 793.707336,196.294205 793.707336,227.600281 
	C789.363647,227.600281 784.991821,227.600281 780.046021,227.600281 
	C780.046021,223.849838 780.046021,220.127930 780.046021,214.814529 
	C777.484680,217.210358 775.917908,218.521637 774.528687,219.999756 
	C763.621948,231.604340 749.982239,232.263229 736.076965,228.335892 
	C722.259338,224.433304 715.004700,214.064316 714.075317,199.873444 
	C713.274231,187.639786 713.230408,175.351852 713.030701,163.084991 
	C712.876648,153.621948 713.000000,144.154388 713.000000,134.346802 
	C717.956055,134.346802 722.542969,134.346802 728.000000,134.346802 
	C728.000000,135.940277 728.000000,137.678864 728.000000,139.417450 
	C728.000000,156.904114 727.669006,174.398880 728.096985,191.875061 
	C728.492371,208.020187 739.600403,217.298035 753.998108,216.909256 
	C757.044495,216.826996 760.060486,215.614243 763.451416,214.774780 
z"/>
<path fill="#7991BC" opacity="1.000000" stroke="none" 
	d="
M259.000000,186.999817 
	C259.000000,194.128754 259.000000,200.757721 259.000000,207.690643 
	C252.306442,207.690643 246.050476,207.690643 239.394867,207.690643 
	C239.394867,177.023773 239.394867,146.320724 239.394867,115.308838 
	C268.362152,115.308838 297.281372,115.308838 326.600830,115.308838 
	C326.600830,121.628090 326.600830,128.002045 326.600830,134.826721 
	C304.303955,134.826721 282.047180,134.826721 259.000000,134.826721 
	C259.000000,152.339142 259.000000,169.419495 259.000000,186.999817 
z"/>
<path fill="#7991BC" opacity="1.000000" stroke="none" 
	d="
M325.842804,274.115356 
	C321.198639,274.563416 316.970581,274.927277 312.349548,275.324921 
	C312.349548,268.270203 312.349548,261.892303 312.349548,255.528748 
	C344.692810,252.174362 376.820679,215.758911 380.347504,188.320679 
	C386.694916,188.320679 393.086884,188.320679 399.490723,188.320679 
	C401.611847,196.292938 398.212524,203.164108 395.440094,209.872437 
	C389.856445,223.382950 381.827332,235.524170 371.501404,245.857193 
	C358.665649,258.701752 343.597565,268.265839 325.842804,274.115356 
z"/>
<path fill="#4FD7FC" opacity="1.000000" stroke="none" 
	d="
M572.000000,108.015816 
	C572.000000,103.888634 572.000000,100.257950 572.000000,96.316582 
	C577.019226,96.316582 581.608337,96.316582 586.601196,96.316582 
	C586.601196,139.969757 586.601196,183.668900 586.601196,227.684616 
	C581.978271,227.684616 577.389099,227.684616 572.000000,227.684616 
	C572.000000,187.990891 572.000000,148.251602 572.000000,108.015816 
z"/>
<path fill="#4FD7FC" opacity="1.000000" stroke="none" 
	d="
M1340.993042,95.000069 
	C1343.110718,95.011864 1344.793091,94.838943 1346.417358,95.071442 
	C1350.691772,95.683304 1353.306274,99.423706 1350.922485,102.645409 
	C1347.958984,106.650681 1349.097290,109.288292 1352.210938,112.183212 
	C1345.871460,115.404999 1346.030762,105.434189 1340.745728,107.235893 
	C1338.764893,108.531944 1342.009277,114.094429 1336.240479,112.598999 
	C1336.240479,106.919159 1336.240479,101.343658 1336.240479,95.329346 
	C1337.692261,95.217957 1339.111816,95.109047 1340.993042,95.000069 
M1347.382080,99.954407 
	C1345.180054,99.135193 1342.978149,98.315971 1340.339355,97.334251 
	C1340.339355,100.323334 1340.339355,102.034637 1340.339355,105.629219 
	C1343.558350,103.463158 1345.685669,102.031662 1347.382080,99.954407 
z"/>
<path fill="none" opacity="1.000000" stroke="none" 
	d="
M1301.763062,152.000076 
	C1311.301025,152.663544 1319.239014,161.964203 1318.705322,171.670013 
	C1305.910522,171.670013 1293.098511,171.670013 1280.237549,171.670013 
	C1281.921997,160.397842 1289.666626,150.386963 1301.763062,152.000076 
z"/>
<path fill="none" opacity="1.000000" stroke="none" 
	d="
M1149.593628,208.785858 
	C1143.757690,205.162903 1142.559692,199.803558 1144.484741,194.329025 
	C1146.768799,187.832779 1153.114624,186.193375 1159.080566,186.188354 
	C1165.673584,186.182800 1172.267700,187.626129 1178.356567,188.376221 
	C1181.414917,200.188919 1172.369385,209.619781 1161.380493,209.932449 
	C1157.584961,210.040466 1153.765015,209.288498 1149.593628,208.785858 
z"/>
<path fill="none" opacity="1.000000" stroke="none" 
	d="
M888.997742,181.897308 
	C887.688232,191.767563 885.271667,200.529037 878.045410,207.578842 
	C861.293884,223.921249 835.019470,218.066208 827.067322,195.951385 
	C822.789795,184.055695 823.202454,172.305374 829.420044,161.267334 
	C839.569336,143.249207 863.241150,141.285263 876.559021,153.857864 
	C884.696289,161.539856 888.221313,170.736938 888.997742,181.897308 
z"/>
<path fill="none" opacity="1.000000" stroke="none" 
	d="
M647.756775,145.990082 
	C658.706726,144.007645 672.583801,150.957367 679.287170,162.440536 
	C687.471985,176.461411 685.636536,198.799133 671.110596,210.567093 
	C661.146851,218.638992 642.384216,219.236069 632.378235,210.864090 
	C616.352295,197.455246 613.189636,176.036469 625.087097,158.965652 
	C630.384705,151.364594 637.656372,146.441040 647.756775,145.990082 
z"/>
<path fill="none" opacity="1.000000" stroke="none" 
	d="
M1347.597534,100.277283 
	C1345.685669,102.031662 1343.558350,103.463158 1340.339355,105.629219 
	C1340.339355,102.034637 1340.339355,100.323334 1340.339355,97.334251 
	C1342.978149,98.315971 1345.180054,99.135193 1347.597534,100.277283 
z"/>
</svg>