<svg version="1.1" id="Layer_1" xmlns="http://www.w3.org/2000/svg" xmlns:xlink="http://www.w3.org/1999/xlink" x="0px" y="0px"
	 width="100%" viewBox="0 0 225 225" enable-background="new 0 0 225 225" xml:space="preserve">
<path fill="none" opacity="1.000000" stroke="none" 
	d="
M152.000000,226.000000 
	C101.333336,226.000000 51.166672,226.000000 1.000007,226.000000 
	C1.000005,151.000000 1.000005,76.000015 1.000002,1.000017 
	C75.999992,1.000011 150.999985,1.000011 225.999969,1.000006 
	C225.999985,75.999985 225.999985,150.999969 226.000000,225.999969 
	C201.500000,226.000000 177.000000,226.000000 152.000000,226.000000 
M75.001770,169.997452 
	C75.001770,169.997452 74.977798,169.986725 74.480286,170.248184 
	C73.983284,170.501617 73.486282,170.755051 72.562927,170.570938 
	C71.669655,170.245468 70.776382,169.919998 69.031357,169.292358 
	C56.928978,168.557755 56.215446,169.100540 56.355957,179.261505 
	C56.256882,180.178665 56.157810,181.095810 55.134819,182.015549 
	C51.258678,182.002808 47.382534,181.990051 43.380997,181.069962 
	C43.371704,178.263474 43.587498,175.429749 43.252438,172.662704 
	C43.098801,171.393906 41.862720,170.256165 40.302197,169.017822 
	C39.760910,169.072189 39.219624,169.126572 37.805103,169.047775 
	C36.308662,169.004578 34.812298,168.927246 33.315765,168.923782 
	C24.193132,168.902618 23.704765,169.230179 24.036940,178.539795 
	C24.127174,181.068771 25.374460,185.509872 26.589251,185.688797 
	C30.668470,186.289673 34.972759,185.362579 39.829559,185.032303 
	C40.463299,185.096237 41.097042,185.160156 42.033970,185.884445 
	C43.113396,186.217438 44.192822,186.550430 46.148678,186.763412 
	C52.432602,186.754074 58.716663,186.766464 65.000397,186.726807 
	C68.490623,186.704773 72.182999,187.031693 74.256027,182.919571 
	C74.453972,182.964661 74.651909,183.009735 75.110062,183.740555 
	C79.882446,188.351578 84.262741,188.442917 92.034363,184.093536 
	C92.623749,184.077240 93.213135,184.060944 93.948326,184.841660 
	C96.794258,187.494904 108.119316,187.567169 110.267761,184.860901 
	C110.848404,184.129486 111.313934,183.076859 111.330872,182.162384 
	C111.570282,169.239838 112.620667,168.700531 100.295021,168.938263 
	C98.314148,168.976471 96.335129,169.110428 93.572556,169.054962 
	C91.997002,169.108414 89.506607,165.986588 89.279030,171.201218 
	C89.277077,173.996460 89.383255,176.796875 89.249268,179.585785 
	C89.014938,184.463074 85.191193,183.721146 82.071335,183.974289 
	C78.989220,184.224380 76.932442,183.304184 77.057564,179.674118 
	C77.170609,176.394272 77.086456,173.107651 77.052391,169.234222 
	C76.362427,169.481735 75.672462,169.729248 75.001770,169.997452 
M173.965988,171.912079 
	C174.241348,175.720367 174.516708,179.528641 174.095978,183.217529 
	C173.393921,183.285324 172.691864,183.353119 171.990021,183.510849 
	C171.990021,183.510849 171.967209,183.426758 171.826111,182.711700 
	C169.145065,178.060425 166.464020,173.409134 163.337814,167.985535 
	C161.858032,169.858063 160.793549,171.021805 159.936447,172.322220 
	C156.687286,177.251968 155.693283,184.275101 147.602707,185.402130 
	C148.724152,185.660568 149.845612,185.919006 151.613220,186.395584 
	C153.221878,185.978378 155.354187,186.072922 156.348587,185.055420 
	C160.669006,180.634628 166.627167,180.757523 170.690201,186.091675 
	C171.130722,186.092651 171.571259,186.093643 172.865585,185.702148 
	C176.840515,186.030472 180.811050,186.510483 184.792160,186.626144 
	C186.932907,186.688339 189.097321,185.858887 191.241318,185.903168 
	C195.022461,185.981216 198.793304,186.528244 202.575089,186.628159 
	C203.463745,186.651642 204.378815,185.675461 205.281723,185.159164 
	C204.314224,184.537476 203.394241,183.493484 202.369751,183.378220 
	C199.906143,183.101074 197.373901,183.430054 194.911621,183.146912 
	C194.076691,183.050888 193.368561,181.852417 192.602478,181.157730 
	C193.417130,180.560913 194.186615,179.541977 195.055161,179.449066 
	C197.356293,179.202942 199.715576,179.512253 202.020508,179.284637 
	C203.118195,179.176224 204.144897,178.349197 205.203751,177.847687 
	C204.076141,177.236191 202.984207,176.194153 201.813965,176.097183 
	C198.789719,175.846588 195.730881,176.013214 192.685867,176.013214 
	C192.501389,175.322311 192.316925,174.631409 192.132446,173.940506 
	C194.425201,172.784744 196.717957,171.628983 199.010696,170.473221 
	C198.931763,169.997421 198.852814,169.521606 198.773880,169.045792 
	C196.470627,169.192551 193.777130,168.620560 191.936783,169.619843 
	C186.250366,172.707443 190.968216,178.931381 188.489731,183.059372 
	C184.617157,183.059372 180.804794,183.059372 176.570770,182.346817 
	C176.324203,178.245026 176.077652,174.143234 175.713120,169.451172 
	C175.039490,169.439835 174.365875,169.428513 173.692230,169.417191 
	C173.812927,169.939285 173.933624,170.461365 173.965988,171.912079 
M137.263153,179.483643 
	C134.316803,175.724060 130.233353,175.609619 125.960030,175.751755 
	C125.123116,175.779587 124.247360,174.639694 123.389511,174.038376 
	C124.119949,173.336166 124.748688,172.446091 125.607567,171.981171 
	C126.593956,171.447235 127.784180,171.289856 128.885864,170.968887 
	C128.783859,170.334564 128.681870,169.700226 128.579865,169.065903 
	C126.228043,169.376266 123.406609,169.017181 121.684509,170.225235 
	C120.475647,171.073242 119.768623,175.059280 120.592484,175.878021 
	C122.307404,177.582260 125.127907,178.775787 127.599632,178.996399 
	C133.470078,179.520386 133.630051,179.420990 131.880478,185.414490 
	C128.305832,185.255905 124.621681,185.092453 120.972130,184.930542 
	C120.972130,185.040588 120.834290,185.558884 120.992599,185.675659 
	C123.839005,187.775070 131.336273,186.713989 133.668610,184.353790 
	C134.598236,183.413055 136.513809,183.446640 138.093674,183.814590 
	C141.679001,186.899521 141.679001,186.899521 144.716141,184.992752 
	C139.505203,182.662750 138.722046,180.117050 140.811249,172.429611 
	C144.463043,171.824341 148.086243,171.223816 151.709442,170.623291 
	C150.029007,169.892059 148.403198,169.868530 146.778244,169.895889 
	C137.039322,170.059860 137.689606,168.477798 137.263153,179.483643 
M53.527962,85.667625 
	C52.494118,84.512100 51.460270,83.356575 50.426430,82.201050 
	C49.623878,83.074799 48.038017,84.129234 48.188843,84.783051 
	C48.466091,85.984901 49.724586,86.988907 50.657845,87.997910 
	C51.073647,88.447464 51.692551,88.709152 52.099884,89.842323 
	C52.181721,94.064850 50.000458,95.402901 45.959999,96.573135 
	C40.511665,98.151138 34.740601,100.512886 30.557959,104.188316 
	C20.190226,113.298798 17.477936,127.302032 22.399250,139.813583 
	C27.269840,152.196167 38.860775,160.011398 52.889568,160.035263 
	C91.543236,160.100998 130.197342,160.138779 168.850769,160.022797 
	C188.145645,159.964890 204.052887,146.101974 207.522522,126.752464 
	C210.735107,108.836349 199.630341,90.048508 181.785812,83.629807 
	C178.919922,82.598946 177.649429,81.063553 176.741226,78.240814 
	C170.699005,59.461109 157.570450,48.252075 138.307556,45.500450 
	C120.455269,42.950314 105.730469,49.753422 94.454399,63.958435 
	C93.389717,65.299660 91.316582,66.661583 89.730148,66.640213 
	C74.086990,66.429504 62.855869,74.018188 53.527962,85.667625 
M39.597477,78.033051 
	C45.606571,78.074089 42.226624,73.902832 43.101234,71.134171 
	C40.685646,71.134171 38.798832,71.134171 35.106682,71.134171 
	C36.617519,74.010506 37.672409,76.018806 39.597477,78.033051 
z"/>
<path fill="#070707" opacity="1.000000" stroke="none" 
	d="
M54.077065,86.191925 
	C62.855869,74.018188 74.086990,66.429504 89.730148,66.640213 
	C91.316582,66.661583 93.389717,65.299660 94.454399,63.958435 
	C105.730469,49.753422 120.455269,42.950314 138.307556,45.500450 
	C157.570450,48.252075 170.699005,59.461109 176.741226,78.240814 
	C177.649429,81.063553 178.919922,82.598946 181.785812,83.629807 
	C199.630341,90.048508 210.735107,108.836349 207.522522,126.752464 
	C204.052887,146.101974 188.145645,159.964890 168.850769,160.022797 
	C130.197342,160.138779 91.543236,160.100998 52.889568,160.035263 
	C38.860775,160.011398 27.269840,152.196167 22.399250,139.813583 
	C17.477936,127.302032 20.190226,113.298798 30.557959,104.188316 
	C34.740601,100.512886 40.511665,98.151138 45.959999,96.573135 
	C50.000458,95.402901 52.181721,94.064850 52.462593,89.385147 
	C53.242558,88.015953 53.659809,87.103935 54.077065,86.191925 
M51.909943,108.272057 
	C51.800659,106.335953 51.691376,104.399841 51.587746,102.563843 
	C41.256786,100.538330 40.290939,101.348358 40.926285,111.142715 
	C40.958004,111.631638 41.113297,112.112549 40.835773,113.110229 
	C34.020580,119.535507 31.904415,126.895485 34.766464,134.219116 
	C37.897633,142.231384 44.013321,146.367233 53.452847,146.462234 
	C65.606041,146.584595 77.761391,146.507050 89.915794,146.491501 
	C116.553947,146.457413 143.196426,146.679504 169.828430,146.252411 
	C183.469376,146.033661 193.915695,134.807648 194.253525,121.377899 
	C194.593430,107.865265 184.311325,96.184311 170.637375,95.168098 
	C166.572250,94.865982 165.454437,93.549690 165.147537,89.599487 
	C163.947632,74.155380 153.012939,61.806023 138.637268,59.058292 
	C123.912231,56.243782 109.569374,63.275387 102.536644,77.174644 
	C100.683243,80.837654 99.019279,82.098724 94.639122,81.107857 
	C78.520775,77.461639 64.923004,87.522690 63.100174,103.890823 
	C62.866024,105.993423 62.516560,108.083183 62.175686,110.496208 
	C58.495388,110.021751 55.238968,109.601936 51.909943,108.272057 
z"/>
<path fill="#545454" opacity="1.000000" stroke="none" 
	d="
M171.989807,183.420914 
	C172.691864,183.353119 173.393921,183.285324 174.627625,183.385864 
	C175.770309,183.389252 176.381378,183.224319 176.992432,183.059387 
	C180.804794,183.059372 184.617157,183.059372 188.489731,183.059372 
	C190.968216,178.931381 186.250366,172.707443 191.936783,169.619843 
	C193.777130,168.620560 196.470627,169.192551 198.773880,169.045792 
	C198.852814,169.521606 198.931763,169.997421 199.010696,170.473221 
	C196.717957,171.628983 194.425201,172.784744 192.132446,173.940506 
	C192.316925,174.631409 192.501389,175.322311 192.685867,176.013214 
	C195.730881,176.013214 198.789719,175.846588 201.813965,176.097183 
	C202.984207,176.194153 204.076141,177.236191 205.203751,177.847687 
	C204.144897,178.349197 203.118195,179.176224 202.020508,179.284637 
	C199.715576,179.512253 197.356293,179.202942 195.055161,179.449066 
	C194.186615,179.541977 193.417130,180.560913 192.602478,181.157730 
	C193.368561,181.852417 194.076691,183.050888 194.911621,183.146912 
	C197.373901,183.430054 199.906143,183.101074 202.369751,183.378220 
	C203.394241,183.493484 204.314224,184.537476 205.281723,185.159164 
	C204.378815,185.675461 203.463745,186.651642 202.575089,186.628159 
	C198.793304,186.528244 195.022461,185.981216 191.241318,185.903168 
	C189.097321,185.858887 186.932907,186.688339 184.792160,186.626144 
	C180.811050,186.510483 176.840515,186.030472 172.425720,185.453018 
	C171.987183,184.609558 171.988495,184.015244 171.989807,183.420914 
z"/>
<path fill="#535353" opacity="1.000000" stroke="none" 
	d="
M94.355247,169.200119 
	C96.335129,169.110428 98.314148,168.976471 100.295021,168.938263 
	C112.620667,168.700531 111.570282,169.239838 111.330872,182.162384 
	C111.313934,183.076859 110.848404,184.129486 110.267761,184.860901 
	C108.119316,187.567169 96.794258,187.494904 93.979568,183.984741 
	C94.125626,178.485245 94.240440,173.842682 94.355247,169.200119 
M97.080215,177.528076 
	C97.080215,179.305664 97.080215,181.083237 97.080215,183.736954 
	C101.101135,183.204254 105.321655,183.805222 107.455750,181.974289 
	C109.003357,180.646530 109.036217,174.695679 107.499176,173.325943 
	C105.398514,171.453964 101.165787,171.974518 97.415962,171.403870 
	C97.267220,173.702164 97.173744,175.146469 97.080215,177.528076 
z"/>
<path fill="#E9E9E9" opacity="1.000000" stroke="none" 
	d="
M38.678337,169.180954 
	C39.219624,169.126572 39.760910,169.072189 40.598427,169.489807 
	C41.259640,174.978790 41.624622,179.995804 41.925842,185.066788 
	C41.862083,185.120758 41.730782,185.224075 41.730782,185.224075 
	C41.097042,185.160156 40.463299,185.096237 39.288414,184.694687 
	C36.022713,184.024078 33.193600,184.027008 30.615231,183.224411 
	C29.206726,182.785965 27.345457,181.087311 27.191496,179.779938 
	C26.285231,172.084259 26.480396,172.052750 34.638054,171.796310 
	C36.411831,171.740540 39.030972,172.659683 38.678337,169.180954 
z"/>
<path fill="#535353" opacity="1.000000" stroke="none" 
	d="
M137.980530,183.036667 
	C136.513809,183.446640 134.598236,183.413055 133.668610,184.353790 
	C131.336273,186.713989 123.839005,187.775070 120.992599,185.675659 
	C120.834290,185.558884 120.972130,185.040588 120.972130,184.930542 
	C124.621681,185.092453 128.305832,185.255905 131.880478,185.414490 
	C133.630051,179.420990 133.470078,179.520386 127.599632,178.996399 
	C125.127907,178.775787 122.307404,177.582260 120.592484,175.878021 
	C119.768623,175.059280 120.475647,171.073242 121.684509,170.225235 
	C123.406609,169.017181 126.228043,169.376266 128.579865,169.065903 
	C128.681870,169.700226 128.783859,170.334564 128.885864,170.968887 
	C127.784180,171.289856 126.593956,171.447235 125.607567,171.981171 
	C124.748688,172.446091 124.119949,173.336166 123.389511,174.038376 
	C124.247360,174.639694 125.123116,175.779587 125.960030,175.751755 
	C130.233353,175.609619 134.316803,175.724060 137.708878,179.603958 
	C138.096573,180.828400 138.038544,181.932541 137.980530,183.036667 
z"/>
<path fill="#5C5C5C" opacity="1.000000" stroke="none" 
	d="
M56.058739,182.012970 
	C56.157810,181.095810 56.256882,180.178665 56.691570,179.383392 
	C57.923325,180.605301 58.819462,181.705322 60.123703,182.905487 
	C70.833122,184.023270 71.387970,183.456635 70.148010,173.172516 
	C70.108292,172.843109 70.025673,172.518875 69.971024,171.866272 
	C69.947029,170.891724 69.915070,170.243134 69.883102,169.594528 
	C70.776382,169.919998 71.669655,170.245468 72.800003,171.200592 
	C73.254173,175.451752 73.471260,179.073257 73.688347,182.694778 
	C72.182999,187.031693 68.490623,186.704773 65.000397,186.726807 
	C58.716663,186.766464 52.432602,186.754074 45.850807,186.494110 
	C47.231335,185.933456 49.028591,185.924271 50.558289,185.279922 
	C52.505070,184.459900 54.235207,183.125580 56.058739,182.012970 
z"/>
<path fill="#484848" opacity="1.000000" stroke="none" 
	d="
M170.435593,185.698166 
	C166.627167,180.757523 160.669006,180.634628 156.348587,185.055420 
	C155.354187,186.072922 153.221878,185.978378 150.944016,185.826172 
	C149.517746,185.182693 148.760696,185.108612 148.003632,185.034546 
	C155.693283,184.275101 156.687286,177.251968 159.936447,172.322220 
	C160.793549,171.021805 161.858032,169.858063 163.337814,167.985535 
	C166.464020,173.409134 169.145065,178.060425 171.419189,183.574249 
	C170.820038,184.857269 170.627823,185.277710 170.435593,185.698166 
M165.613983,178.531189 
	C165.018723,176.825623 164.423462,175.120041 163.387283,172.151138 
	C161.818741,175.099258 160.956772,176.719391 159.773987,178.942474 
	C162.048248,178.942474 163.498474,178.942474 165.613983,178.531189 
z"/>
<path fill="#565656" opacity="1.000000" stroke="none" 
	d="
M38.241722,169.114365 
	C39.030972,172.659683 36.411831,171.740540 34.638054,171.796310 
	C26.480396,172.052750 26.285231,172.084259 27.191496,179.779938 
	C27.345457,181.087311 29.206726,182.785965 30.615231,183.224411 
	C33.193600,184.027008 36.022713,184.024078 38.969086,184.688660 
	C34.972759,185.362579 30.668470,186.289673 26.589251,185.688797 
	C25.374460,185.509872 24.127174,181.068771 24.036940,178.539795 
	C23.704765,169.230179 24.193132,168.902618 33.315765,168.923782 
	C34.812298,168.927246 36.308662,169.004578 38.241722,169.114365 
z"/>
<path fill="#313131" opacity="1.000000" stroke="none" 
	d="
M91.443855,184.081177 
	C84.262741,188.442917 79.882446,188.351578 75.054672,182.936066 
	C74.992119,178.083298 74.984962,174.035019 74.977798,169.986725 
	C74.977798,169.986725 75.001770,169.997452 75.343079,169.935272 
	C76.152687,169.856735 76.620979,169.840363 77.089272,169.824005 
	C77.086456,173.107651 77.170609,176.394272 77.057564,179.674118 
	C76.932442,183.304184 78.989220,184.224380 82.071335,183.974289 
	C85.191193,183.721146 89.014938,184.463074 89.249268,179.585785 
	C89.383255,176.796875 89.277077,173.996460 89.637878,170.641876 
	C90.665466,170.525482 91.916321,170.973343 91.912613,171.410599 
	C91.876831,175.635132 91.630219,179.857910 91.443855,184.081177 
z"/>
<path fill="#2A2A2A" opacity="1.000000" stroke="none" 
	d="
M59.715599,182.805344 
	C58.819462,181.705322 57.923325,180.605301 56.868111,179.085632 
	C56.215446,169.100540 56.928978,168.557755 69.457230,169.443451 
	C69.915070,170.243134 69.947029,170.891724 69.528015,171.731293 
	C65.901886,171.922272 62.726727,171.922272 59.102028,171.922272 
	C59.334713,176.049500 59.525154,179.427414 59.715599,182.805344 
z"/>
<path fill="#282828" opacity="1.000000" stroke="none" 
	d="
M138.037109,183.425629 
	C138.038544,181.932541 138.096573,180.828400 138.052002,179.320038 
	C137.689606,168.477798 137.039322,170.059860 146.778244,169.895889 
	C148.403198,169.868530 150.029007,169.892059 151.709442,170.623291 
	C148.086243,171.223816 144.463043,171.824341 140.811249,172.429611 
	C138.722046,180.117050 139.505203,182.662750 144.716141,184.992752 
	C141.679001,186.899521 141.679001,186.899521 138.037109,183.425629 
z"/>
<path fill="#21D34E" opacity="1.000000" stroke="none" 
	d="
M39.162388,78.030083 
	C37.672409,76.018806 36.617519,74.010506 35.106682,71.134171 
	C38.798832,71.134171 40.685646,71.134171 43.101234,71.134171 
	C42.226624,73.902832 45.606571,78.074089 39.162388,78.030083 
z"/>
<path fill="#E9E9E9" opacity="1.000000" stroke="none" 
	d="
M55.596779,182.014267 
	C54.235207,183.125580 52.505070,184.459900 50.558289,185.279922 
	C49.028591,185.924271 47.231335,185.933456 45.412590,186.554123 
	C44.192822,186.550430 43.113396,186.217438 41.882378,185.554260 
	C41.730782,185.224075 41.862083,185.120758 42.274849,185.095001 
	C42.960541,184.038589 43.233467,183.007950 43.506393,181.977295 
	C47.382534,181.990051 51.258678,182.002808 55.596779,182.014267 
z"/>
<path fill="#DFDFDF" opacity="1.000000" stroke="none" 
	d="
M91.739105,184.087357 
	C91.630219,179.857910 91.876831,175.635132 91.912613,171.410599 
	C91.916321,170.973343 90.665466,170.525482 89.581131,170.203613 
	C89.506607,165.986588 91.997002,169.108414 93.963898,169.127533 
	C94.240440,173.842682 94.125626,178.485245 93.906670,183.586227 
	C93.213135,184.060944 92.623749,184.077240 91.739105,184.087357 
z"/>
<path fill="#2E2E2E" opacity="1.000000" stroke="none" 
	d="
M43.443695,181.523636 
	C43.233467,183.007950 42.960541,184.038589 42.338608,185.041016 
	C41.624622,179.995804 41.259640,174.978790 41.006088,169.510376 
	C41.862720,170.256165 43.098801,171.393906 43.252438,172.662704 
	C43.587498,175.429749 43.371704,178.263474 43.443695,181.523636 
z"/>
<path fill="#F8B6B6" opacity="1.000000" stroke="none" 
	d="
M53.802513,85.929779 
	C53.659809,87.103935 53.242558,88.015953 52.522289,88.992035 
	C51.692551,88.709152 51.073647,88.447464 50.657845,87.997910 
	C49.724586,86.988907 48.466091,85.984901 48.188843,84.783051 
	C48.038017,84.129234 49.623878,83.074799 50.426430,82.201050 
	C51.460270,83.356575 52.494118,84.512100 53.802513,85.929779 
z"/>
<path fill="#484848" opacity="1.000000" stroke="none" 
	d="
M176.781601,182.703094 
	C176.381378,183.224319 175.770309,183.389252 174.975647,183.445557 
	C174.516708,179.528641 174.241348,175.720367 174.245544,171.357315 
	C174.960419,170.548843 175.395752,170.295135 175.831100,170.041443 
	C176.077652,174.143234 176.324203,178.245026 176.781601,182.703094 
z"/>
<path fill="#C4C4C4" opacity="1.000000" stroke="none" 
	d="
M74.729050,170.117462 
	C74.984962,174.035019 74.992119,178.083298 74.924561,182.593201 
	C74.651909,183.009735 74.453972,182.964661 73.972183,182.807175 
	C73.471260,179.073257 73.254173,175.451752 73.013184,171.419357 
	C73.486282,170.755051 73.983284,170.501617 74.729050,170.117462 
z"/>
<path fill="#535353" opacity="1.000000" stroke="none" 
	d="
M175.772110,169.746307 
	C175.395752,170.295135 174.960419,170.548843 174.289703,170.893005 
	C173.933624,170.461365 173.812927,169.939285 173.692230,169.417191 
	C174.365875,169.428513 175.039490,169.439835 175.772110,169.746307 
z"/>
<path fill="#C4C4C4" opacity="1.000000" stroke="none" 
	d="
M77.070831,169.529114 
	C76.620979,169.840363 76.152687,169.856735 75.333450,169.924927 
	C75.672462,169.729248 76.362427,169.481735 77.070831,169.529114 
z"/>
<path fill="#282828" opacity="1.000000" stroke="none" 
	d="
M147.803162,185.218338 
	C148.760696,185.108612 149.517746,185.182693 150.620941,185.717102 
	C149.845612,185.919006 148.724152,185.660568 147.803162,185.218338 
z"/>
<path fill="#484848" opacity="1.000000" stroke="none" 
	d="
M171.989899,183.465881 
	C171.988495,184.015244 171.987183,184.609558 171.998825,185.649261 
	C171.571259,186.093643 171.130722,186.092651 170.562897,185.894928 
	C170.627823,185.277710 170.820038,184.857269 171.489746,183.931793 
	C171.967209,183.426758 171.990021,183.510849 171.989899,183.465881 
z"/>
<path fill="#FBFBFB" opacity="1.000000" stroke="none" 
	d="
M51.982548,109.182129 
	C55.238968,109.601936 58.495388,110.021751 62.175686,110.496208 
	C62.516560,108.083183 62.866024,105.993423 63.100174,103.890823 
	C64.923004,87.522690 78.520775,77.461639 94.639122,81.107857 
	C99.019279,82.098724 100.683243,80.837654 102.536644,77.174644 
	C109.569374,63.275387 123.912231,56.243782 138.637268,59.058292 
	C153.012939,61.806023 163.947632,74.155380 165.147537,89.599487 
	C165.454437,93.549690 166.572250,94.865982 170.637375,95.168098 
	C184.311325,96.184311 194.593430,107.865265 194.253525,121.377899 
	C193.915695,134.807648 183.469376,146.033661 169.828430,146.252411 
	C143.196426,146.679504 116.553947,146.457413 89.915794,146.491501 
	C77.761391,146.507050 65.606041,146.584595 53.452847,146.462234 
	C44.013321,146.367233 37.897633,142.231384 34.766464,134.219116 
	C31.904415,126.895485 34.020580,119.535507 41.460350,112.786835 
	C44.052368,112.401337 46.134983,112.715836 47.951515,112.160286 
	C49.457905,111.699593 50.650780,110.213791 51.982548,109.182129 
z"/>
<path fill="#940303" opacity="1.000000" stroke="none" 
	d="
M51.946243,108.727089 
	C50.650780,110.213791 49.457905,111.699593 47.951515,112.160286 
	C46.134983,112.715836 44.052368,112.401337 41.647987,112.530319 
	C41.113297,112.112549 40.958004,111.631638 40.926285,111.142715 
	C40.290939,101.348358 41.256786,100.538330 51.587746,102.563843 
	C51.691376,104.399841 51.800659,106.335953 51.946243,108.727089 
z"/>
<path fill="#F6F6F6" opacity="1.000000" stroke="none" 
	d="
M97.080246,177.059433 
	C97.173744,175.146469 97.267220,173.702164 97.415962,171.403870 
	C101.165787,171.974518 105.398514,171.453964 107.499176,173.325943 
	C109.036217,174.695679 109.003357,180.646530 107.455750,181.974289 
	C105.321655,183.805222 101.101135,183.204254 97.080215,183.736954 
	C97.080215,181.083237 97.080215,179.305664 97.080246,177.059433 
z"/>
<path fill="#EDEDED" opacity="1.000000" stroke="none" 
	d="
M60.123703,182.905487 
	C59.525154,179.427414 59.334713,176.049500 59.102028,171.922272 
	C62.726727,171.922272 65.901886,171.922272 69.520050,172.057251 
	C70.025673,172.518875 70.108292,172.843109 70.148010,173.172516 
	C71.387970,183.456635 70.833122,184.023270 60.123703,182.905487 
z"/>
<path fill="#CECECE" opacity="1.000000" stroke="none" 
	d="
M165.281342,178.736832 
	C163.498474,178.942474 162.048248,178.942474 159.773987,178.942474 
	C160.956772,176.719391 161.818741,175.099258 163.387283,172.151138 
	C164.423462,175.120041 165.018723,176.825623 165.281342,178.736832 
z"/>
</svg>